# xmcd
#
# Track frame offsets:
#	150
#	14794
#	26265
#	43665
#	57758
#	74802
#	85154
#	100921
#	112969
#	127321
#
# Disc length: 1895 seconds
#
# Revision: 1
# Processed by: cddbd v1.4PL0 Copyright (c) Steve Scherf et al.
# Submitted via: EasyCDDAExtractor 6.0.0.1
#
DISCID=8b07650a
DTITLE=Skip Heller - Moon Country
DYEAR=1993
DGENRE=Country
TTITLE0=Moon Country
TTITLE1=Big Love Deacon Man
TTITLE2=Pictures Of Us (California Nights Revisited)
TTITLE3=A Wasted Lover's Prayer
TTITLE4=Both Ends Burning
TTITLE5=Water Cooler Up On 29
TTITLE6=Someplace Bright
TTITLE7=An Honest Bar
TTITLE8=Something Nice
TTITLE9=Every Word (I Can't Say)
EXTD=
EXTT0=
EXTT1=
EXTT2=
EXTT3=
EXTT4=
EXTT5=
EXTT6=
EXTT7=
EXTT8=
EXTT9=
PLAYORDER=
